<svg id="Layer_1" enable-background="new 0 0 512 512" height="512" viewBox="0 0 512 512" width="512" xmlns="http://www.w3.org/2000/svg"><g><path d="m233.431 195.5 169.894-169.893c9.449-9.45 2.757-25.607-10.607-25.607h-183.376c-6.764 0-12.692 4.527-14.471 11.053l-50.304 184.447z" fill="#555af5"/><path d="m392.718 0h-183.375c-3.199 0-6.203 1.022-8.678 2.779l112.744 112.744 89.916-89.916c9.45-9.45 2.757-25.607-10.607-25.607z" fill="#660ef1"/><path d="m357.841 231.046 134.348-134.349c9.449-9.449 2.757-25.607-10.607-25.607h-206.392c-3.978 0-7.794 1.58-10.607 4.393l-120.016 120.017-59.247-29.623c-6.766-3.383-14.993-1.198-19.189 5.096l-48.199 72.298c-6.646 9.968.5 23.32 12.481 23.32h78.609l14.354 43.062c2.042 6.125 7.774 10.257 14.23 10.257h131.371l187.667 187.667c9.449 9.449 25.607 2.757 25.607-10.607v-169.341c0-4.844-2.339-9.39-6.281-12.206z" fill="#64c3ff"/><path d="m481.582 71.091h-206.392c-2.167 0-4.279.484-6.213 1.365v247.454l187.667 187.667c9.449 9.449 25.607 2.757 25.607-10.606v-169.342c0-4.844-2.339-9.39-6.281-12.206l-118.128-84.377 134.347-134.348c9.449-9.45 2.757-25.607-10.607-25.607z" fill="#5a91fa"/><path d="m144.567 195.5-59.247-29.623c-3.284-1.642-6.909-1.962-10.253-1.148l48.308 144.925c2.041 6.123 7.77 10.254 14.224 10.256h131.377z" fill="#5a91fa"/><path d="m268.977 319.91h211.105c-1.044-1.735-2.419-3.277-4.113-4.487l-118.128-84.377z" fill="#555af5"/></g></svg>